<svg xmlns="http://www.w3.org/2000/svg" viewBox="0 0 61.04 169.5"><defs><style>.cls-1{isolation:isolate;}.cls-2{fill:#1f1005;}.cls-3{fill:#5f391d;}.cls-4{fill:#e6e6e6;}.cls-5{fill:#ffd9c3;}.cls-6,.cls-8{fill:#68382a;mix-blend-mode:multiply;}.cls-6{opacity:0.1;}.cls-7{fill:#ffbca1;}.cls-8{opacity:0.2;}.cls-9{fill:none;stroke:#a52b20;stroke-linecap:round;stroke-linejoin:round;stroke-width:1.67px;}.cls-10{fill:#005477;}.cls-11{fill:#003852;}</style></defs><title>男孩</title><g class="cls-1"><g id="圖層_1" data-name="圖層 1"><rect class="cls-2" x="10.06" y="56.02" width="40.92" height="50.18" rx="19.86" ry="19.86"/><path class="cls-3" d="M22.42,169.5H9.9c-2,0-5.26-2.19-5.26-4.87h0c0-2.68,3.22-4.87,5.26-4.87H22.42c1.4,0,3.61,2.19,3.61,4.87h0C26,167.31,23.82,169.5,22.42,169.5Z"/><path class="cls-3" d="M38.32,169.5H50.85c2,0,5.25-2.19,5.25-4.87h0c0-2.68-3.22-4.87-5.25-4.87H38.32c-1.39,0-3.61,2.19-3.61,4.87h0C34.71,167.31,36.93,169.5,38.32,169.5Z"/><polygon class="cls-4" points="46.93 107.26 14.11 107.26 18.42 62.05 42.62 62.05 46.93 107.26"/><path class="cls-5" d="M30.52,69h0a5.6,5.6,0,0,1-5.58-5.58V53.14a5.59,5.59,0,0,1,5.58-5.57h0a5.59,5.59,0,0,1,5.58,5.57V63.4A5.6,5.6,0,0,1,30.52,69Z"/><path class="cls-6" d="M30.52,47.57h0a5.59,5.59,0,0,0-5.58,5.57v7.63H36.1V53.14A5.59,5.59,0,0,0,30.52,47.57Z"/><path d="M57,29.63A26.6,26.6,0,1,1,30.41,3C38.14-2.2,61.14-.2,41.55,5.47A26.64,26.64,0,0,1,57,29.63Z"/><rect class="cls-5" y="29.63" width="11.71" height="16.42" rx="5.85" ry="5.85"/><path class="cls-7" d="M5.85,43.73h0a4.21,4.21,0,0,1-4.2-4.2V36.14a4.21,4.21,0,0,1,4.2-4.2h0a4.21,4.21,0,0,1,4.21,4.2v3.39A4.21,4.21,0,0,1,5.85,43.73Z"/><path class="cls-6" d="M6,29.63a18.22,18.22,0,0,0-.79,5.3v5.81A18.22,18.22,0,0,0,6,46a5.87,5.87,0,0,0,5.73-5.85V35.48A5.87,5.87,0,0,0,6,29.63Z"/><path class="cls-5" d="M6.72,39.6H5a1.2,1.2,0,0,1-1.2-1.2h0A1.19,1.19,0,0,1,5,37.21H6.72a1.19,1.19,0,0,1,1.2,1.19h0A1.2,1.2,0,0,1,6.72,39.6Z"/><path class="cls-5" d="M55.19,46h0A5.86,5.86,0,0,0,61,40.19V35.48a5.86,5.86,0,0,0-5.85-5.85h0a5.87,5.87,0,0,0-5.86,5.85v4.71A5.87,5.87,0,0,0,55.19,46Z"/><path class="cls-7" d="M55.19,43.73h0a4.22,4.22,0,0,0,4.21-4.2V36.14a4.22,4.22,0,0,0-4.21-4.2h0A4.22,4.22,0,0,0,51,36.14v3.39A4.22,4.22,0,0,0,55.19,43.73Z"/><path class="cls-6" d="M55.06,29.63a18.22,18.22,0,0,1,.79,5.3v5.81a18.22,18.22,0,0,1-.79,5.3,5.87,5.87,0,0,1-5.73-5.85V35.48A5.87,5.87,0,0,1,55.06,29.63Z"/><path class="cls-5" d="M54.32,39.6h1.74a1.2,1.2,0,0,0,1.2-1.2h0a1.19,1.19,0,0,0-1.2-1.19H54.32a1.19,1.19,0,0,0-1.2,1.19h0A1.2,1.2,0,0,0,54.32,39.6Z"/><rect class="cls-5" x="6.19" y="17.15" width="48.67" height="41.48" rx="17.91" ry="17.91"/><path class="cls-7" d="M27.4,39.15h6.24a2.07,2.07,0,0,1,.5.06,2.12,2.12,0,0,0,.25-1h0a2.13,2.13,0,0,0-2.12-2.13H28.78a2.14,2.14,0,0,0-2.13,2.13h0a2.12,2.12,0,0,0,.25,1A2.07,2.07,0,0,1,27.4,39.15Z"/><path class="cls-8" d="M28.94,38.56H28.3a.3.3,0,0,1-.29-.3h0A.29.29,0,0,1,28.3,38h.64a.29.29,0,0,1,.29.29h0A.3.3,0,0,1,28.94,38.56Z"/><path class="cls-8" d="M32.66,38.56H32a.3.3,0,0,1-.29-.3h0A.29.29,0,0,1,32,38h.64a.29.29,0,0,1,.29.29h0A.3.3,0,0,1,32.66,38.56Z"/><ellipse cx="19.14" cy="29.8" rx="2" ry="3"/><ellipse cx="40.14" cy="29.8" rx="2" ry="3"/><path class="cls-9" d="M24.53,44.8c.94,1,3.55,1.69,6.61,1.69s5.67-.7,6.62-1.69Z"/><polygon class="cls-10" points="23.85 160.66 17.37 160.66 15.76 107.26 34.99 107.26 23.85 160.66"/><polygon class="cls-10" points="36.9 160.66 43.37 160.66 45.28 107.26 26.05 107.26 36.9 160.66"/><polygon class="cls-11" points="15.88 111.22 45.14 111.22 45.28 107.26 15.76 107.26 15.88 111.22"/><path class="cls-5" d="M43.79,65.27h0a3.83,3.83,0,0,1,4.76,2.17L57.73,91a3.45,3.45,0,0,1-2.32,4.45h0a3.83,3.83,0,0,1-4.76-2.17L41.47,69.73A3.46,3.46,0,0,1,43.79,65.27Z"/><path class="cls-6" d="M43.79,65.27h0a3.83,3.83,0,0,1,4.76,2.17L57.73,91a3.45,3.45,0,0,1-2.32,4.45h0a3.83,3.83,0,0,1-4.76-2.17L41.47,69.73A3.46,3.46,0,0,1,43.79,65.27Z"/><polygon class="cls-4" points="45.48 82.51 31.7 72.66 40.95 62.05 46.96 62.05 53.79 72.95 45.48 82.51"/><path class="cls-5" d="M17.35,65.27h0a3.84,3.84,0,0,0-4.77,2.17L3.4,91a3.46,3.46,0,0,0,2.32,4.45h0a3.85,3.85,0,0,0,4.77-2.17l9.18-23.53A3.47,3.47,0,0,0,17.35,65.27Z"/><path class="cls-6" d="M17.35,65.27h0a3.84,3.84,0,0,0-4.77,2.17L3.4,91a3.46,3.46,0,0,0,2.32,4.45h0a3.85,3.85,0,0,0,4.77-2.17l9.18-23.53A3.47,3.47,0,0,0,17.35,65.27Z"/><polygon class="cls-4" points="15.66 82.51 29.43 72.66 20.18 62.05 14.18 62.05 7.34 72.95 15.66 82.51"/><path class="cls-2" d="M49.08,97.44h0a3.31,3.31,0,0,0,2.57-4.08L44.4,62.22a3.18,3.18,0,0,0-3.71-2.52h0a3.18,3.18,0,0,0-2.52,3.72l6.68,31.25A3.69,3.69,0,0,0,49.08,97.44Z"/><path class="cls-2" d="M13.3,97.44h0a3.31,3.31,0,0,1-2.57-4.08L18,62.22A3.19,3.19,0,0,1,21.7,59.7h0a3.18,3.18,0,0,1,2.51,3.72L17.53,94.67A3.68,3.68,0,0,1,13.3,97.44Z"/><path class="cls-5" d="M55.56,95.09h0a2.91,2.91,0,0,1-4.15-.73L42,80.4a3.17,3.17,0,0,1,1-4.24h0a2.92,2.92,0,0,1,4.15.73l9.42,14A3.17,3.17,0,0,1,55.56,95.09Z"/><path class="cls-5" d="M49.61,77.87a8.54,8.54,0,0,0-3.11-4.51c-1.06-.67-2.3-1.31-2.41-.07a5.28,5.28,0,0,1-.34,1.48s-3.46-1.15-4.07,0A1.29,1.29,0,0,0,40,76.26a1,1,0,0,0-1.4.27c-.3.45-.39.9.78,1.48a1.09,1.09,0,0,0-1.27,1,1.64,1.64,0,0,0,1.39,1.47c-.14,0-.72.11-.81.67s.55,1.14,2.28,1.75c3.74,1.32,7.45,2,8.58-1.83Z"/><path class="cls-5" d="M5.57,95.09h0a2.91,2.91,0,0,0,4.15-.73l9.43-14a3.17,3.17,0,0,0-1-4.24h0a2.91,2.91,0,0,0-4.15.73l-9.42,14A3.17,3.17,0,0,0,5.57,95.09Z"/><path class="cls-5" d="M11.52,77.87a8.6,8.6,0,0,1,3.11-4.51c1.06-.67,2.31-1.31,2.41-.07a5.28,5.28,0,0,0,.34,1.48s3.46-1.15,4.07,0a1.26,1.26,0,0,1-.34,1.44,1,1,0,0,1,1.39.27c.31.45.4.9-.78,1.48A1.08,1.08,0,0,1,23,79a1.63,1.63,0,0,1-1.38,1.47c.14,0,.71.11.81.67s-.55,1.14-2.29,1.75c-3.74,1.32-7.45,2-8.58-1.83Z"/><path d="M34.15,17.1S42,21,42,24.94s2.61-6.53-2.61-11.76S34.15,17.1,34.15,17.1Z"/><path d="M38.15,17.1S46,21,46,24.94s2.61-6.53-2.61-11.76S38.15,17.1,38.15,17.1Z"/><rect x="28.14" y="40.8" width="1" height="2"/><rect x="30.14" y="40.8" width="1" height="2"/><rect x="32.14" y="40.8" width="1" height="2"/></g></g></svg>