<svg id="y-dog" xmlns="http://www.w3.org/2000/svg" xmlns:xlink="http://www.w3.org/1999/xlink" viewBox="0 0 698.98 831.23"><defs><style>.cls-1{fill:none;}.cls-2{fill:#5c3a13;}.cls-3{fill:#f5e3c3;}.cls-4{fill:#e5c796;}.cls-5{fill:#966e2c;}.cls-6{fill:#3b2213;}.cls-7{clip-path:url(#clip-path);}.cls-8{fill:#fff;}.cls-9{clip-path:url(#clip-path-2);}.cls-10{fill:#8c6239;}.cls-11{fill:#ffa4ac;}.cls-12{fill:#ad4924;}.cls-13{fill:#998675;}</style><clipPath id="clip-path" transform="translate(0)"><ellipse class="cls-1" cx="388.62" cy="217.9" rx="36" ry="43"/></clipPath><clipPath id="clip-path-2" transform="translate(0)"><ellipse id="ttp-l-2" class="cls-1" cx="197.85" cy="217.9" rx="36" ry="43"/></clipPath></defs><title>y-dog-s</title><path class="cls-2" d="M236.58,119.22S267.15,56.65,258.22,43s-36.65-25.85-54.57-24.83S171.2,44.9,159.43,77.82,196.59,162,236.58,119.22Z" transform="translate(0)"/><path class="cls-2" d="M368.72,119.22S338.14,56.65,347.08,43s36.65-25.85,54.56-24.83S434.1,44.9,445.86,77.82,408.7,162,368.72,119.22Z" transform="translate(0)"/><path class="cls-3" d="M456.19,732.33c22.88,27.59,65.44,45,106.37,46.87,45.34,2.09,84.67-10.34,101.6-35.74,25.2-37.8,12.3-92.67,17.41-97.14s31.79,78.84,7.1,118.34c-21.17,33.87-54.9,56.11-105.18,60.17-90.55,7.32-140.78-42.43-160-42.43S446.46,720.6,456.19,732.33Z" transform="translate(0)"/><path class="cls-3" d="M196,438.31c-8.27,9.3-18.54,139.82-55.85,181.47-41.87,46.73-35.54,103.74-15.53,142.69,26.11,50.8,63.29,63.7,95.23,62.38,46.81-1.92,98.31-.48,154.42.65,85.88,1.73,108.64-31.94,124-70.79,11.28-28.47,8.75-102.15-20.89-131.24-48-47.1-59.71-161.58-88.86-194.15C360.94,398.5,301.45,319.7,196,438.31Z" transform="translate(0)"/><path class="cls-4" d="M274.69,547.53s32.25-21.33,93.58,15.26,39.81,101.72,71.56,154.68c20.58,34.32,26.5,67.39,17.92,91.1-18.2,11.11-44.27,17.72-83.52,16.93-56.11-1.13-107.61-2.57-154.42-.65-30.25,1.25-65.2-10.28-91-54.66.42-11.77,4.86-23.31,14.63-33.83C188.86,687.47,200.93,542.62,274.69,547.53Z" transform="translate(0)"/><path class="cls-4" d="M272.41,499.29c-41.76.62-69.5-5.71-87.45-13,4.73-25.28,8-44.66,11-48,14-15.72,27.14-27.94,39.54-37.3,37-2.28,88.71.7,132.47,6,8.2,8.06,15,16.16,20.54,22.34,14.72,16.44,25,53.77,37.74,92.75C380.17,509.88,324,498.51,272.41,499.29Z" transform="translate(0)"/><path class="cls-5" d="M226,828.33c-16.05,0-1.9-20.7-7.05-32.7-5-11.73-22.63-2.15-21.17-13.41,1.1-8.51-.91-17.07-2.12-29.63-1.3-13.48-2.51-32.65-4.94-50.8-4.77-35.78-9.17-75.53-9.17-103.72,0-50.91,0-95.9,13.41-134.06,13.53-38.49,23.62-63.64,41.86-63.64,29.23,0,31.71,59.38,37.16,115.85,2.87,29.75,14.13,53.55,14.13,78.61,0,7,.69,18.06,1.56,32,3.26,52,8.71,138.95-11.84,182.37C270.17,825.41,245.17,828.33,226,828.33Z" transform="translate(0)"/><path class="cls-3" d="M285.28,594.83c0,33.59,15.68,158.91-10,213.18-12.28,26-79.83,26.12-88.57,5.77-8.43-19.6,1.87-33.16-1-62.58-3.85-40-16.18-110.69-16.18-153,0-105.85,32.64-195,67.26-195S285.28,489,285.28,594.83Z" transform="translate(0)"/><path class="cls-5" d="M370.64,831.23c-21.48,0-46.34-7.1-53.47-23-19.68-43.82-12.51-130.67-8.22-182.57,1.15-13.94,7-68.79,7.9-75.77,9-67.56,4.73-149.62,48.95-149.62h.47c18.24.36,26.64,31.55,39.41,70.29,12.66,38.42,27.75,77.95,26.75,128.85-.56,28.18-6.77,68.61-12.26,104.28-2.78,18.11-5.41,35.22-7,48.68-1.46,12.53-.4,22.2.53,30.73,1.24,11.28,2.3,21-3,32.65C405.6,827.18,386.65,831.23,370.64,831.23Z" transform="translate(0)"/><path class="cls-4" d="M236.82,403.19c23.24,0,37.12,38.65,43.73,96.08h-8.14c-43.44.65-71.72-6.23-89.57-13.82C195.54,436,215.81,403.19,236.82,403.19Z" transform="translate(0)"/><path class="cls-3" d="M314,593.76c-.67,33.59-18.82,158.57,5.78,213.33,11.77,26.21,79.3,27.7,88.44,7.53,8.81-19.44-1.21-33.2,2.2-62.55,4.64-39.88,18.38-110.35,19.21-152.68,2.1-105.83-28.77-195.59-63.39-196.27S316.06,487.94,314,593.76Z" transform="translate(0)"/><path class="cls-4" d="M356.05,405.62c8.47.91,16.72,1.91,24.61,3,19.75,14.7,36.66,57.66,44.45,113.16-31.85-8.39-68.43-16.33-104.95-20.15C326.63,451.47,338.23,415.19,356.05,405.62Z" transform="translate(0)"/><path class="cls-3" d="M498.26,314.75c0,115.4-138.52,170.1-192.35,170.1-65.57,0-203.87-54.7-203.87-170.1s36.38-214.38,138.3-258.3c28.87-12.44,84.47-21.14,124.72,0C444.2,98,498.26,229.8,498.26,314.75Z" transform="translate(0)"/><path class="cls-6" d="M322.84,322.57c-18.61,9.31-20.21,15.31-25,15.3-5.13,0-7.45-6-25.1-15.3-8.15-4.29,11.21-16.68,25-16.68S331.09,318.45,322.84,322.57Z" transform="translate(0)"/><path id="SVGID-3" class="cls-6" d="M352.62,217.9c0,23.76,16.11,43,36,43s36-19.25,36-43-16.11-43-36-43S352.62,194.15,352.62,217.9Z" transform="translate(0)"/><g id="r-eyes"><g class="cls-7"><path class="cls-8" d="M388.6,197.07a12,12,0,1,0,12-12A12,12,0,0,0,388.6,197.07Z" transform="translate(0)"/></g></g><path id="SVGID-4" class="cls-6" d="M233.85,217.9c0,23.76-16.11,43-36,43s-36-19.25-36-43,16.11-43,36-43S233.85,194.15,233.85,217.9Z" transform="translate(0)"/><g id="l-eyes"><g class="cls-9"><path id="ttp-l" class="cls-8" d="M222.82,194.72a12,12,0,1,1-12-12A12,12,0,0,1,222.82,194.72Z" transform="translate(0)"/></g></g><path class="cls-10" d="M367.44,31.25c-.65,7.08,17.91,42.52,41.39,68.77C494,195.23,471.38,316.27,567.69,337.4c38.1,8.36,58.69-183.32,5.17-261C543.69,34.07,370.49-2.14,367.44,31.25Z" transform="translate(0)"/><path class="cls-10" d="M237.86,31.25c.64,7.08-17.92,42.52-41.4,68.77C111.26,195.23,133.91,316.27,37.6,337.4c-38.1,8.36-58.69-183.32-5.17-261C61.6,34.07,234.8-2.14,237.86,31.25Z" transform="translate(0)"/><path class="cls-4" d="M102,313.75c0-115.4,36.38-214.38,138.3-258.3,2.38-1,5-2,7.68-3C226.07,81.6,199.75,117.15,188,135c-26.2,39.9-56,121-63.5,178-5.64,43.1,0,87.21,70.23,127.32,63.35,36.18,90.44,59.17,235.19-3.74h0c-42.95,31.81-95.48,47.26-124.09,47.26C240.34,483.85,102,429.15,102,313.75Z" transform="translate(0)"/><path id="tongle" class="cls-11" d="M299.13,359.19h-2.88c-4.32,5.45-9.05,9.33-14.14,11.64C287,397,300,451.88,311.7,370A37.48,37.48,0,0,1,299.13,359.19Z" transform="translate(0)"/><path class="cls-12" d="M353.53,353.42C342,365.68,331,371.21,320.87,369.85c-12.23-1.64-19.62-13.08-21.07-15.54V337.87H296v16.2c-7,10.32-15,15.84-24,16.39-17.33,1.07-32.79-16.79-32.95-17l-2.93,2.5c.66.77,15.86,18.36,34.36,18.36.58,0,1.16,0,1.74-.05,9.59-.58,18.16-6,25.5-16,3.12,4.61,10.73,13.8,22.59,15.41,11.41,1.55,23.54-4.37,36-17.6Z" transform="translate(0)"/><path class="cls-13" d="M256.27,85.19s7.42-25-12.14-59.37c0,0,27.66,37.11,29,51.28Z" transform="translate(0)"/><path class="cls-13" d="M283.26,72.37s7.42-25-12.14-59.37c0,0,27.66,37.11,29,51.28Z" transform="translate(0)"/><path class="cls-13" d="M269.09,79.12s7.42-25-12.14-59.37c0,0,27.66,37.11,29,51.27Z" transform="translate(0)"/><path class="cls-13" d="M284.27,72.19s7.42-25-12.14-59.37c0,0,27.66,37.11,29,51.28Z" transform="translate(0)"/><path class="cls-13" d="M311.26,59.37s7.42-25-12.14-59.37c0,0,27.66,37.11,29,51.28Z" transform="translate(0)"/><path class="cls-13" d="M297.09,66.12s7.42-25-12.14-59.37c0,0,27.66,37.11,29,51.27Z" transform="translate(0)"/></svg>